{
  "accessors": [
    {
      "bufferView": 2,
      "componentType": 5126,
      "count": 38302,
      "max": [
        7.3096795082092285,
        1.4531607627868652,
        0.31609827280044556
      ],
      "min": [
        -2.176360607147217,
        -3.427471876144409,
        -0.31609830260276794
      ],
      "type": "VEC3"
    },
    {
      "bufferView": 2,
      "byteOffset": 459624,
      "componentType": 5126,
      "count": 38302,
      "max": [
        1.0,
        0.9999998807907104,
        1.0
      ],
      "min": [
        -1.0,
        -1.0,
        -1.0
      ],
      "type": "VEC3"
    },
    {
      "bufferView": 1,
      "componentType": 5126,
      "count": 38302,
      "max": [
        0.9839388728141785,
        0.952326774597168
      ],
      "min": [
        0.006610499694943428,
        0.020832791924476624
      ],
      "type": "VEC2"
    },
    {
      "bufferView": 0,
      "componentType": 5125,
      "count": 193560,
      "type": "SCALAR"
    },
    {
      "bufferView": 2,
      "byteOffset": 919248,
      "componentType": 5126,
      "count": 921,
      "max": [
        -0.9921469688415527,
        1.2387652397155762,
        0.1309819519519806
      ],
      "min": [
        -7.235000133514404,
        -3.5234580039978027,
        -0.1309819519519806
      ],
      "type": "VEC3"
    },
    {
      "bufferView": 2,
      "byteOffset": 930300,
      "componentType": 5126,
      "count": 921,
      "max": [
        0.9986923933029175,
        0.9966950416564941,
        1.0
      ],
      "min": [
        -0.8887977600097656,
        -0.9744830131530762,
        -1.0
      ],
      "type": "VEC3"
    },
    {
      "bufferView": 1,
      "byteOffset": 306416,
      "componentType": 5126,
      "count": 921,
      "max": [
        0.9960227608680725,
        0.9194380640983582
      ],
      "min": [
        -0.011541683226823807,
        0.0018804669380187988
      ],
      "type": "VEC2"
    },
    {
      "bufferView": 0,
      "byteOffset": 774240,
      "componentType": 5125,
      "count": 1416,
      "type": "SCALAR"
    }
  ],
  "asset": {
    "extras": {
      "author": "Xipeng Wang (https://sketchfab.com/1741896354)",
      "license": "CC-BY-4.0 (http://creativecommons.org/licenses/by/4.0/)",
      "source": "https://sketchfab.com/3d-models/csgo-karambit-autotronic-8829eb899c6c4845a2e754510a71660f",
      "title": "CSGO Karambit Autotronic"
    },
    "generator": "Sketchfab-12.66.0",
    "version": "2.0"
  },
  "bufferViews": [
    {
      "buffer": 0,
      "byteLength": 779904,
      "name": "floatBufferViews",
      "target": 34963
    },
    {
      "buffer": 0,
      "byteLength": 313784,
      "byteOffset": 779904,
      "byteStride": 8,
      "name": "floatBufferViews",
      "target": 34962
    },
    {
      "buffer": 0,
      "byteLength": 941352,
      "byteOffset": 1093688,
      "byteStride": 12,
      "name": "floatBufferViews",
      "target": 34962
    }
  ],
  "buffers": [
    {
      "byteLength": 2035040,
      "uri": "scene.bin"
    }
  ],
  "extensionsUsed": [
    "KHR_materials_clearcoat"
  ],
  "images": [
    {
      "uri": "textures/autotronic_baseColor.jpeg"
    }
  ],
  "materials": [
    {
      "doubleSided": true,
      "name": "autotronic",
      "pbrMetallicRoughness": {
        "baseColorTexture": {
          "index": 0
        },
        "metallicFactor": 0.0,
        "roughnessFactor": 0.6753681159847471
      }
    },
    {
      "doubleSided": true,
      "extensions": {
        "KHR_materials_clearcoat": {
          "clearcoatFactor": 0.3536920013466631,
          "clearcoatRoughnessFactor": 0.04
        }
      },
      "name": "autotronic_blade",
      "pbrMetallicRoughness": {
        "baseColorTexture": {
          "index": 0
        },
        "metallicFactor": 0.6146745094492596,
        "roughnessFactor": 0.5491982281965568
      }
    }
  ],
  "meshes": [
    {
      "name": "cylinders1_autotronic_0",
      "primitives": [
        {
          "attributes": {
            "NORMAL": 1,
            "POSITION": 0,
            "TEXCOORD_0": 2
          },
          "indices": 3,
          "material": 0,
          "mode": 4
        }
      ]
    },
    {
      "name": "cylinders1_autotronic_blade_0",
      "primitives": [
        {
          "attributes": {
            "NORMAL": 5,
            "POSITION": 4,
            "TEXCOORD_0": 6
          },
          "indices": 7,
          "material": 1,
          "mode": 4
        }
      ]
    }
  ],
  "nodes": [
    {
      "children": [
        1
      ],
      "matrix": [
        1.0,
        0.0,
        0.0,
        0.0,
        0.0,
        2.220446049250313e-16,
        -1.0,
        0.0,
        0.0,
        1.0,
        2.220446049250313e-16,
        0.0,
        0.0,
        0.0,
        0.0,
        1.0
      ],
      "name": "Sketchfab_model"
    },
    {
      "children": [
        2
      ],
      "matrix": [
        1.0,
        0.0,
        0.0,
        0.0,
        0.0,
        0.0,
        1.0,
        0.0,
        0.0,
        -1.0,
        0.0,
        0.0,
        0.0,
        0.0,
        0.0,
        1.0
      ],
      "name": "30bd8f2186ab4a4f9e364b9d8799e2b8.fbx"
    },
    {
      "children": [
        3
      ],
      "name": "RootNode"
    },
    {
      "children": [
        4,
        5
      ],
      "name": "cylinders1"
    },
    {
      "mesh": 0,
      "name": "cylinders1_autotronic_0"
    },
    {
      "mesh": 1,
      "name": "cylinders1_autotronic_blade_0"
    }
  ],
  "samplers": [
    {
      "magFilter": 9729,
      "minFilter": 9987,
      "wrapS": 10497,
      "wrapT": 10497
    }
  ],
  "scene": 0,
  "scenes": [
    {
      "name": "Sketchfab_Scene",
      "nodes": [
        0
      ]
    }
  ],
  "textures": [
    {
      "sampler": 0,
      "source": 0
    }
  ]
}
